<?xml version="1.0" standalone="no"?>
<!DOCTYPE svg PUBLIC "-//W3C//DTD SVG 20010904//EN"
 "http://www.w3.org/TR/2001/REC-SVG-20010904/DTD/svg10.dtd">
<svg version="1.0" xmlns="http://www.w3.org/2000/svg"
 width="512.000000pt" height="512.000000pt" viewBox="0 0 512.000000 512.000000"
 preserveAspectRatio="xMidYMid meet">

<g transform="translate(0.000000,512.000000) scale(0.100000,-0.100000)"
fill="#000000" stroke="none">
<path d="M1324 5110 c-53 -21 -78 -89 -52 -144 20 -45 50 -56 180 -66 141 -11
208 -28 294 -75 113 -63 188 -173 218 -318 24 -115 22 -131 -29 -207 -85 -128
-141 -286 -170 -475 -19 -129 -20 -303 -1 -330 12 -18 7 -26 -73 -99 -388
-358 -721 -857 -865 -1296 -58 -179 -71 -257 -71 -435 0 -137 3 -171 23 -240
36 -123 86 -209 172 -295 133 -133 288 -202 455 -204 50 0 102 3 116 6 25 7
27 4 57 -75 44 -114 120 -262 189 -365 69 -102 202 -245 293 -314 77 -59 219
-130 310 -155 92 -25 301 -24 390 1 93 26 234 97 311 155 194 147 393 432 489
697 l22 61 51 -9 c110 -19 275 19 397 89 92 54 207 172 252 258 66 126 83 207
83 390 0 182 -13 259 -75 445 -150 448 -475 932 -877 1302 l-71 66 14 41 c11
32 12 65 3 173 -18 240 -66 419 -154 570 -39 68 -45 85 -45 135 1 137 56 290
133 367 48 48 135 97 205 115 23 7 92 16 154 22 125 11 152 22 174 76 31 74
-25 143 -116 143 -77 0 -211 -19 -285 -41 -179 -53 -317 -166 -392 -319 -23
-47 -49 -119 -59 -160 -22 -89 -20 -86 -37 -72 -25 21 -151 64 -227 78 -150
27 -332 9 -461 -45 l-68 -29 -16 57 c-59 212 -168 348 -350 436 -101 49 -171
69 -295 84 -99 13 -167 13 -196 1z m1380 -721 c80 -15 173 -67 237 -132 72
-72 138 -201 168 -327 21 -85 47 -288 39 -296 -3 -2 -43 19 -89 47 -46 27
-120 67 -164 89 -217 103 -348 119 -514 61 -106 -36 -253 -107 -351 -169 -35
-23 -66 -40 -68 -38 -7 8 20 216 39 296 26 108 95 250 153 316 127 144 321
198 550 153z m-257 -966 c-14 -468 -126 -1006 -304 -1458 -166 -420 -355 -685
-563 -788 -60 -30 -72 -32 -165 -32 -96 0 -103 2 -179 39 -253 123 -331 385
-230 773 88 338 334 759 644 1099 157 173 364 346 535 450 72 44 237 122 259
123 5 1 6 -86 3 -206z m341 161 c459 -209 990 -794 1232 -1357 96 -225 133
-379 133 -567 1 -116 -2 -144 -22 -199 -46 -133 -122 -216 -251 -279 -180 -87
-353 -42 -526 135 -351 360 -658 1314 -681 2117 l-6 198 24 -7 c13 -4 57 -23
97 -41z m-195 -1106 c15 -62 27 -116 27 -120 0 -5 -27 -8 -60 -8 -33 0 -60 3
-60 8 -1 18 55 232 60 232 3 0 18 -51 33 -112z m133 -448 c18 -52 33 -98 34
-102 0 -5 -90 -8 -200 -8 -110 0 -200 3 -200 6 0 4 32 99 65 192 3 9 36 12
136 10 l132 -3 33 -95z m178 -427 c31 -58 56 -108 56 -110 0 -2 -180 -3 -401
-3 -220 0 -399 3 -397 8 2 4 27 53 56 110 l52 102 289 0 290 0 55 -107z m206
-333 c0 -5 43 -52 94 -105 l95 -95 -739 0 -739 0 95 95 c51 53 94 100 94 105
0 6 200 10 550 10 350 0 550 -4 550 -10z m200 -432 c0 -6 -24 -53 -52 -105
l-53 -93 -640 0 -640 0 -19 33 c-26 46 -86 164 -86 171 0 3 335 6 745 6 561 0
745 -3 745 -12z m-325 -453 c-99 -87 -220 -146 -344 -166 -160 -27 -349 37
-496 166 l-50 44 470 0 470 0 -50 -44z"/>
</g>
</svg>
